<?xml version="1.0" standalone="no"?>
<!DOCTYPE svg PUBLIC "-//W3C//DTD SVG 20010904//EN"
 "http://www.w3.org/TR/2001/REC-SVG-20010904/DTD/svg10.dtd">
<svg version="1.0" xmlns="http://www.w3.org/2000/svg"
 width="1181.000000pt" height="1181.000000pt" viewBox="0 0 1181.000000 1181.000000"
 preserveAspectRatio="xMidYMid meet">

<g transform="translate(0.000000,1181.000000) scale(0.100000,-0.100000)"
fill="#000000" stroke="none">
<path d="M0 9703 l0 -2108 1891 -1889 1891 -1889 -1891 -1891 c-1073 -1073
-1891 -1899 -1891 -1909 0 -16 15 -17 183 -17 l182 0 4235 4237 4235 4237 3
-4237 2 -4237 1485 0 1485 0 0 5905 c0 5618 -1 5905 -18 5905 -9 0 -1281
-1264 -2952 -2935 -1614 -1614 -2938 -2934 -2942 -2933 -4 2 -1328 1323 -2942
2936 -1614 1612 -2939 2932 -2945 2932 -8 0 -11 -611 -11 -2107z"/>
</g>
</svg>
